<svg xmlns="http://www.w3.org/2000/svg" viewBox="0 0 1600 900"><defs><linearGradient id="s" x2="0" y2="1"><stop stop-color="#101a2a"/><stop offset=".55" stop-color="#26334a"/><stop offset="1" stop-color="#080b10"/></linearGradient><radialGradient id="g"><stop stop-color="#ffc65f" stop-opacity=".9"/><stop offset="1" stop-color="#ff7b22" stop-opacity="0"/></radialGradient></defs><rect width="1600" height="900" fill="url(#s)"/><path d="M0 430L130 265 220 330 330 190 440 305 540 155 650 300 760 210 870 325 1000 175 1130 305 1250 135 1380 255 1510 180 1600 250V900H0Z" fill="#111823"/><g fill="#1a202a" stroke="#3b4655" stroke-width="5"><path d="M30 820V480h260v340M350 820V400h330v420M720 820V510h220v310M980 820V370h360v450M1380 820V480h190v340"/><path d="M365 400l145-145 155 145M995 370l165-150 165 150"/></g><g fill="url(#g)" opacity=".75"><circle cx="130" cy="610" r="95"/><circle cx="430" cy="590" r="100"/><circle cx="1070" cy="545" r="100"/><circle cx="1460" cy="610" r="90"/></g><rect y="790" width="1600" height="110" fill="#17171a"/><path d="M0 790h1600" stroke="#705b39" stroke-width="5"/><g fill="#111821" stroke="#8d744c" stroke-width="4"><rect x="560" y="420" width="480" height="260"/><path d="M560 420l240-180 240 180"/></g><g font-family="Georgia,serif" fill="#f1dfba"><text x="80" y="110" font-size="58">ESPERANÇA</text><text x="82" y="148" font-size="24" fill="#aebed1">Último Refúgio da Humanidade</text><text x="670" y="505" font-size="44">GUILDA</text><text x="620" y="550" font-size="34">DOS AVENTUREIROS</text></g></svg>